<?xml version="1.0" encoding="iso-8859-1"?>
<!-- Uploaded to: SVG Repo, www.svgrepo.com, Generator: SVG Repo Mixer Tools -->
<svg height="800px" width="800px" version="1.1" id="Layer_1" xmlns="http://www.w3.org/2000/svg" xmlns:xlink="http://www.w3.org/1999/xlink" 
	 viewBox="0 0 512 512" xml:space="preserve">
<circle style="fill:#96EDE5;" cx="256" cy="256" r="256"/>
<path style="fill:#26D4CB;" d="M265.731,511.798c121.835-4.556,221.891-94.236,242.407-211.306l-75.867-75.867l-32.551,73.202
	l-13.353,1.064l-58.37-58.37l-70.59,68.637l-86.275,6.868l-91.401-91.403l9.128,97.952l86.375,86.375l-8.132,4.217L265.731,511.798z
	"/>
<path id="SVGCleanerId_0" style="fill:#FFDC58;" d="M440.811,267.324l-8.54-42.701c-8.42,21.163-29.041,36.626-53.9,36.626H133.63
	c-24.859,0-45.48-15.463-53.9-36.626l-8.54,42.701c-7.397,36.99,20.894,71.501,58.616,71.501h252.39
	C419.918,338.825,448.21,304.314,440.811,267.324z"/>
<g>
	<path id="SVGCleanerId_0_1_" style="fill:#FFDC58;" d="M440.811,267.324l-8.54-42.701c-8.42,21.163-29.041,36.626-53.9,36.626
		H133.63c-24.859,0-45.48-15.463-53.9-36.626l-8.54,42.701c-7.397,36.99,20.894,71.501,58.616,71.501h252.39
		C419.918,338.825,448.21,304.314,440.811,267.324z"/>
</g>
<path style="fill:#F9B54C;" d="M440.811,267.324l-8.54-42.701c-8.42,21.163-29.041,36.626-53.9,36.626H255.426v77.576h126.769
	C419.918,338.825,448.21,304.314,440.811,267.324z"/>
<path style="fill:#53706C;" d="M78.917,310.381h354.166c5.194-8.413,8.345-18.144,8.826-28.444H70.092
	C70.573,292.237,73.723,301.968,78.917,310.381z"/>
<path style="fill:#446864;" d="M441.909,281.936H255.428v28.444h177.657C438.279,301.968,441.428,292.237,441.909,281.936z"/>
<path style="fill:#53706C;" d="M167.102,413.168l-11.754-11.754c-13.617-13.617-10.811-36.405,5.701-46.313l29.384-17.63
	c11.647-6.989,26.555-5.153,36.161,4.451l0,0c9.604,9.604,11.44,24.512,4.451,36.159l-17.63,29.384
	C203.507,423.981,180.719,426.786,167.102,413.168z"/>
<path style="fill:#446864;" d="M226.594,341.923c-0.179-0.179-0.372-0.336-0.555-0.509l-65.346,65.346l6.408,6.409
	c13.617,13.617,36.405,10.811,46.313-5.701l17.63-29.384C238.033,366.437,236.197,351.529,226.594,341.923L226.594,341.923z"/>
<g>
	<path style="fill:#224A42;" d="M203.662,370.028c-1.324,0-2.648-0.505-3.656-1.515c-2.02-2.019-2.02-5.294,0-7.313l120.679-120.679
		c2.019-2.02,5.294-2.02,7.313,0c2.02,2.019,2.02,5.294,0,7.313L207.319,368.512C206.308,369.523,204.984,370.028,203.662,370.028z"
		/>
	<path style="fill:#224A42;" d="M200.006,361.2c-1.838,1.838-1.984,4.703-0.479,6.728l127.886-127.886
		c-2.024-1.507-4.891-1.36-6.728,0.479"/>
</g>
<path style="fill:#1B3A34;" d="M327.413,240.042L199.527,367.928c0.15,0.2,0.297,0.403,0.479,0.586
	c1.008,1.01,2.334,1.515,3.656,1.515s2.648-0.505,3.656-1.515l120.679-120.679c2.02-2.019,2.02-5.294,0-7.313
	C327.816,240.338,327.613,240.192,327.413,240.042z"/>
</svg>